<?xml version="1.0" encoding="UTF-8" standalone="no"?>
<svg
   xmlns:dc="http://purl.org/dc/elements/1.1/"
   xmlns:cc="http://creativecommons.org/ns#"
   xmlns:rdf="http://www.w3.org/1999/02/22-rdf-syntax-ns#"
   xmlns:svg="http://www.w3.org/2000/svg"
   xmlns="http://www.w3.org/2000/svg"
   viewBox="0 0 4666.6665 4623.6001"
   height="4623.6001"
   width="4666.6665"
   xml:space="preserve"
   id="svg2"
   version="1.1"><metadata
     id="metadata8"><rdf:RDF><cc:Work
         rdf:about=""><dc:format>image/svg+xml</dc:format><dc:type
           rdf:resource="http://purl.org/dc/dcmitype/StillImage" /></cc:Work></rdf:RDF></metadata><defs
     id="defs6" /><g
     transform="matrix(1.3333333,0,0,-1.3333333,0,4623.6)"
     id="g10"><g
       transform="scale(0.1)"
       id="g12"><g
         transform="scale(2.14724)"
         id="g14"><path
           id="path16"
           style="fill:#ffffff;fill-opacity:1;fill-rule:nonzero;stroke:none"
           d="M 0,16149.6 V 8551.96 7597.62 0 H 16300 V 16149.6 H 0" /></g><g
         transform="scale(1.86769)"
         id="g18"><path
           id="path20"
           style="fill:#231f20;fill-opacity:1;fill-rule:nonzero;stroke:none"
           d="m 3305.89,7585.19 c -27.41,612.57 -13.42,1202.71 74.93,1790.38 104.65,696.03 303.46,1365.53 558.24,2019.63 243.49,625.1 514.25,1237.2 872.84,1806.8 49.84,79.1 100.3,158.1 154.69,234.1 27.64,38.7 21.81,56.6 -16.29,84.3 -373.31,271.2 -506,648.2 -436.28,1089.7 66.28,419.6 304.89,726.4 702.61,888.7 696.71,284.4 1394.95,-265.1 1291.29,-1010.7 -2.46,-17.9 -4.6,-35.9 -6.59,-53.9 -14.13,-128.8 -55.52,-224.5 -182.57,-301.8 -235.48,-143.1 -413.4,-350.6 -513.63,-614.5 -13.71,-36 -34.27,-60.1 -67.09,-80.3 -328.43,-201.3 -521.96,-502.8 -631.13,-863.8 -44.52,-147.2 -83.17,-296.7 -82.4,-454.9 -59.4,148.3 -79.16,304 -86.88,485 -106.55,-192.2 -168.18,-375.9 -214.69,-566.1 -61.39,-250.9 -84.03,-505.6 -81.09,-763.1 0.45,-39.5 -2.22,-75.9 56.3,-82.9 492.88,-59.3 883.28,-322.6 1246.3,-636.1 212.4,-183.3 422.39,-369 673.23,-507.6 -40.48,48.4 -80.15,97.4 -121.43,145 -304.71,351.3 -545.92,740.3 -657.77,1194.9 -122.87,499.3 -91.98,988.3 154.96,1451 16.91,31.6 35.82,62.2 60.34,91.3 -29.72,-133 -42.09,-266.9 -49.69,-401.7 -42.35,-751.7 223.06,-1376.8 776.95,-1880.5 516.62,-469.9 1130.59,-714.78 1822.51,-777.42 368.53,-33.36 727.21,-1.87 1080.05,117.36 237.84,80.46 429.6,221.66 586.3,409.16 342.1,409.2 596.3,864.7 677.5,1400.1 67.5,445.7 -7.5,878.8 -145.5,1301.8 -95.5,292.8 -205.3,580.3 -377.6,839.8 -362.3,545.8 -883.76,846.5 -1512.99,969.4 -729.02,142.5 -1422.39,26.1 -2077.26,-323.1 -20.73,-11.1 -42.14,-20.7 -71.11,-34.8 -11.51,104.1 0.27,202.9 -17.24,300 -6.96,38.5 35.71,44.6 60.98,56.3 297.75,137.1 608.67,231.1 934.04,273 685.45,88.2 1341.18,-8 1960.55,-322.6 30.74,-15.7 54.35,-34.6 78.76,12.4 188.47,363.7 854.67,456.1 1198.27,3.7 295,-388.4 280.3,-908.7 -49.4,-1301.3 -46.7,-55.7 -51,-98 -22.3,-158.7 167.9,-354.6 277.7,-725.8 314.1,-1117.8 103.8,-1118.6 -467.5,-2215.1 -1522.21,-2655.54 -18.85,-7.87 -37.05,-17.19 -70.09,-32.61 314.02,28.81 633.7,72.23 979.3,384.91 40.3,-140.33 81,-278.15 106.6,-420.03 5.1,-27.63 15.3,-52.31 -33.5,-49.15 -557.9,36.14 -1006.35,-208.01 -1379.54,-587.04 -192.97,-195.96 -417.9,-232.58 -659.69,-256.25 -219.79,-21.58 -440.49,-5.52 -660.66,6.96 -415.48,23.56 -826.58,0.32 -1228.84,-116.24 -22.27,-6.42 -48.61,-5.25 -61.14,-30.95 743.53,-115.59 1486.59,-239.92 2242.76,16.39 -107.99,-154.9 -174.44,-310.49 -234.78,-443.06 120.1,111.53 257.22,232.32 386.74,360.66 233.71,231.57 457.78,473.68 737.8,652.3 304.35,194.14 632.45,286.18 991.75,200.73 202.4,-48.08 372.1,-155.38 492.2,-330.84 15.6,-22.81 43.3,-41.65 -8.2,-66.28 -319.9,-152.7 -447.8,-439.37 -520.9,-762.17 -18.8,-82.99 -34.7,-170.16 -15.6,-251.54 33.1,-141.73 -27.2,-251.81 -95,-362.91 -254.3,-417.04 -604.2,-733.26 -1025.43,-975.38 -622.21,-357.6 -1298.02,-526.96 -2008.09,-582.8 -961.35,-75.71 -1879.22,107.24 -2774.48,445.95 -374.64,141.78 -725.01,326.93 -1084.81,549.88 155.71,-615.52 461.82,-1121.92 893.77,-1569.43 -84.72,-10.92 -144.36,32.88 -207.69,57.94 -66.88,26.45 -130.55,60.93 -201.96,94.98 -0.41,-38.76 23.74,-62.86 41.46,-87.43 331.46,-459.98 728.67,-851.96 1200.86,-1168.02 77.1,-51.56 113.72,-53.6 170.32,32.07 336.99,509.72 771.06,912.94 1341.6,1147.73 661.94,272.42 1339.83,311.45 2027.31,99.26 60.19,-18.58 117.21,-47.6 174.93,-73.46 18.36,-8.19 34.26,-21.9 66.87,-43.26 -488.89,-1.55 -941.38,-70.09 -1321.31,-383.14 272.21,67.67 547.52,83.36 843.55,64.67 -222.3,-214 -366.65,-459.81 -434.01,-746.05 -66.5,-282.92 -57.02,-567.22 7.61,-850.57 5.83,259.41 55.52,509.35 156.28,747.93 148.96,352.63 363.07,654.82 695.03,858.23 545.54,334.36 1188.29,121.37 1431.19,-470.37 90,-219.2 113,-449.11 113.3,-682.98 0.1,-29.13 0,-58.26 7.4,-90.7 160.1,396.74 374,751.99 745.5,1016.49 -222.7,-335.23 -343.7,-688.87 -419.9,-1061.2 116.7,137.87 245.2,258.98 397.9,352.68 37.5,22.97 34.7,59.91 40.4,95.14 163.8,1010.07 -203.4,1821.29 -934.2,2496.45 -26.6,24.58 -53.9,48.46 -81.2,72.23 -89.3,77.74 -89.7,77.96 -13.9,163.09 104.4,117.31 205.9,237.4 290.5,369.76 32.8,51.24 66.6,57.02 119.3,44.33 280.7,-67.41 562,-132.46 847.8,-190.5 -271.3,152.86 -542.7,305.72 -826.6,465.65 165.5,90.71 323.2,60.08 485.2,6.27 -87.9,111.26 -229.3,187.13 -464.4,251.7 54.6,102.21 103.9,109.76 489.7,74.91 -127.6,130.1 -238,180.06 -430.3,194.67 69.2,140.44 226.1,175.68 496,111.43 -62,94.5 -150.1,132.24 -383.8,161.69 72.4,103.61 168,164 283.1,196.18 488.1,136.48 950.6,-150.83 1035.6,-674.79 100.8,-620.98 -133.4,-1121.65 -618.6,-1511.06 -92.4,-74.16 -195.5,-129.57 -307.9,-174.6 211.8,-17.56 421.1,-40.32 635.5,-127.22 -110.1,-35.39 -203.6,-69.44 -291.9,-125.66 176.3,-4.55 347.7,-29.88 516,-94.23 -188.8,-289.4 -243.2,-606.31 -215.1,-942.29 56.2,206.78 128.1,406.65 233,593.73 111.5,198.96 243.2,382.5 421.7,527.01 283.3,229.37 602.3,323.45 944.3,167 342,-156.45 474.8,-462.34 495.9,-823.64 6.8,-117.15 -11.3,-232.75 -37.8,-366.97 97.8,104.3 170.7,202.87 242.1,302.56 986.5,1375.39 1340.2,2917.13 1150.1,4580.6 -198.2,1733.8 -980.8,3164 -2365.6,4238.7 -934.1,725.1 -1996.7,1169.5 -3173.1,1318.2 -1145.99,144.9 -2250.19,-25.1 -3309.89,-482.7 -55.85,-24.1 -79.14,-22.5 -105,36.7 -45.94,105.2 -103.71,205.8 -182.9,289.9 -58.3,61.9 -38.12,87.9 29.83,118 370.51,164.2 750.76,300.2 1144.67,395.4 636.77,153.8 1282.76,227.5 1938.27,203.4 1011.72,-37.2 1962.02,-303.8 2863.72,-759.6 1156.2,-584.3 2069.6,-1432.2 2745.4,-2532.8 489.3,-797 784.3,-1668.2 914.3,-2593.2 174.9,-1244.51 48.6,-2460.93 -416.2,-3628.41 -702.3,-1764.21 -1949.1,-3009.59 -3686.3,-3766.25 -942.4,-410.45 -1929.5,-591.59 -2956.18,-543.45 -1020.77,47.86 -1979.76,326.39 -2880.5,803.72 -1815.31,961.93 -2957.62,2453.66 -3448.44,4440.71 -312.05,1263.27 -245.82,2520.58 130.13,3764.28 254.56,842.1 648.11,1610.2 1204.63,2293.2 73.27,89.9 73.46,90.8 138.43,1.5 65.79,-90.5 134.55,-178.6 215.82,-255.6 40.55,-38.3 41.28,-65.3 6.02,-111.3 -414.43,-540 -746.16,-1126.7 -969.05,-1770.8 -331.18,-957.1 -458.43,-1939.79 -356.11,-2950.4 32.01,-316.22 97.9,-625.31 170.8,-933.5 4.08,-17.24 13.06,-33.31 27.74,-69.71" /></g><g
         transform="scale(1.5463)"
         id="g22"><path
           id="path24"
           style="fill:#231f20;fill-opacity:1;fill-rule:nonzero;stroke:none"
           d="m 10126.7,15326.5 c -74.7,-2.5 -131.25,-65 -130.28,-144.2 1.04,-87.6 67.18,-154.8 148.38,-151 80,3.8 139.1,67.9 138,149.9 -1.2,82.7 -71.5,148.1 -156.1,145.3 z m -1271.32,-553 c 13.26,312.1 190.65,625.9 422.17,914.4 149.13,185.7 318.37,351 538.7,452.8 344.85,159.3 670.35,36.5 816.95,-313.7 187.7,-448.6 100.3,-870.5 -144.4,-1270 -144.9,-236.3 -327.7,-437.9 -588.48,-551.7 -530.42,-231.5 -1056,119.8 -1044.94,768.2" /></g><g
         transform="scale(1.69848)"
         id="g26"><path
           id="path28"
           style="fill:#231f20;fill-opacity:1;fill-rule:nonzero;stroke:none"
           d="m 16300,11417.9 c -164.7,-193.1 -338.2,-350.5 -523.8,-494.5 -440.9,-342 -922.4,-600.5 -1479.8,-693.3 -302,-50.3 -601.4,-43.2 -891.7,70.2 -136.8,53.4 -136.5,53.1 -43.3,163.4 328.5,388.8 746.8,626.4 1236.7,752.5 418.7,107.8 846.9,111.2 1273.6,135.7 138.9,8 275.2,31.4 428.3,66" /></g><g
         transform="scale(1.5999)"
         id="g30"><path
           id="path32"
           style="fill:#231f20;fill-opacity:1;fill-rule:nonzero;stroke:none"
           d="m 14680.3,13535.2 c -275.4,269.6 -402.6,597 -443.8,958.2 -69,606.4 53.5,1182.9 297.7,1737.1 6.9,15.5 16.4,29.9 38.3,69.5 21.3,-146.5 36.6,-268.7 68.6,-387.6 92.2,-342.5 219.9,-675 277.9,-1027.2 78.4,-475.3 13,-923.7 -238.7,-1350" /></g><g
         transform="scale(1.35307)"
         id="g34"><path
           id="path36"
           style="fill:#231f20;fill-opacity:1;fill-rule:nonzero;stroke:none"
           d="m 11957.2,15216.8 c 110.3,-136 207.2,-249.8 336,-329.1 310.8,-191.2 633.1,-216.8 963.1,-56.2 139.3,67.8 238.7,179.9 301.4,322 72.6,164.3 45.8,270.6 -92.6,386.6 -74.5,62.5 -161.9,101.2 -249.4,140.7 -79.6,35.9 -161.1,69.3 -228.4,127.1 -82.9,71.4 -116,161.6 -91.9,268.8 22.5,99.9 92.7,154.3 187.2,181.1 149.1,42.2 298.2,19.7 445.6,-7.3 193.6,-35.5 385.9,-54.3 583.3,-27.8 151.9,20.4 242.1,-35.7 280.6,-149.2 53.2,-156.5 13.4,-295.6 -111.1,-372.6 -67.2,-41.4 -137.7,-78 -208.4,-113.3 -177.7,-88.4 -275.4,-228.8 -306.3,-426.3 -42.4,-272.3 104.3,-475.8 378.9,-507.4 27.4,-3.2 55,-5.3 87.5,-8.4 -181.7,-164.7 -437.9,-145.4 -609.1,49.8 -53.9,61.4 -81.7,72 -151.4,17.7 -341.6,-266.4 -884.6,-277.9 -1244.5,-34.7 -194,131 -290.7,311.6 -270.5,538.5" /></g><g
         transform="scale(1.52586)"
         id="g38"><path
           id="path40"
           style="fill:#231f20;fill-opacity:1;fill-rule:nonzero;stroke:none"
           d="m 12666.5,15474 c -73.8,-15.9 -114.8,-67.6 -112.1,-139.6 2.4,-64.1 44.3,-111.4 115.3,-106.7 73.1,4.8 115.7,57.7 117,123.7 1.3,68.7 -46.6,112 -120.2,122.6 z m 306.9,-1332.6 c -55.5,319.5 -236.4,562.7 -383.7,820.7 -159.3,279.1 -281.1,568.2 -293.6,894 -2.3,62.3 -0.4,125.6 7.7,187.5 22.8,174.4 170.4,256.4 333.7,187.7 83.9,-35.4 151.8,-92.6 200.3,-168.5 266.9,-417 427.6,-872.3 467.6,-1365.6 20.1,-248.9 -102.3,-428.4 -332,-555.8" /></g><g
         transform="scale(1.65093)"
         id="g42"><path
           id="path44"
           style="fill:#231f20;fill-opacity:1;fill-rule:nonzero;stroke:none"
           d="m 14615.6,12960.9 c 105.7,852.3 1058.1,1423.6 1684.4,1558.3 -247.7,-324.2 -403.9,-702 -664,-1012 -213.3,-254.4 -462.4,-455.3 -798.1,-521.5 -72.2,-14.2 -146.7,-16.7 -222.3,-24.8" /></g><g
         transform="scale(1.47747)"
         id="g46"><path
           id="path48"
           style="fill:#231f20;fill-opacity:1;fill-rule:nonzero;stroke:none"
           d="m 16300,14893.5 c -99.2,-358.1 -234.2,-697.1 -375,-1033.5 -336.8,-804.7 -682.4,-1605.5 -1044.2,-2399.4 -34.7,-76.2 -70.2,-110.1 -151.5,-74.8 -20.7,8.9 -43.9,12.9 -66.4,16.5 -192.4,30.4 -201.5,34.8 -115,204.5 548,1075.9 1024.8,2189.1 1681.8,3207.9 17.6,27.3 27.3,62.1 70.3,78.8" /></g><g
         transform="scale(1.37841)"
         id="g50"><path
           id="path52"
           style="fill:#231f20;fill-opacity:1;fill-rule:nonzero;stroke:none"
           d="m 15959.5,15804.9 c 49.9,-382.1 214.1,-732.2 277.5,-1106.7 63,-372.9 -9.5,-714 -219,-1029.1 -46.8,-70.4 -74.1,-64.7 -123.1,-6.2 -128,153.1 -230.6,318.7 -266.8,517.6 -106,584.1 62.7,1113.1 331.4,1624.4" /></g></g></g></svg>